<?xml version="1.0" encoding="UTF-8"?>
<svg id="_레이어_1" data-name="레이어 1" xmlns="http://www.w3.org/2000/svg" viewBox="0 0 60 40.17">
  <path d="m55.36,2.73c1.05,0,1.91.85,1.91,1.91v30.89c0,1.05-.85,1.91-1.91,1.91H4.64c-1.05,0-1.91-.85-1.91-1.91V4.64c0-1.05.85-1.91,1.91-1.91h50.73m0-2.73H4.64C2.08,0,0,2.08,0,4.64v30.89c0,2.56,2.08,4.64,4.64,4.64h50.73c2.56,0,4.64-2.08,4.64-4.64V4.64c0-2.56-2.08-4.64-4.64-4.64h0Z" style="fill: #fff; stroke-width: 0px;"/>
  <path d="m30,27.97c-.81,0-1.62-.25-2.31-.76L1.6,8.04C.22,7.02-.33,5.31.2,3.68c.53-1.63,1.99-2.68,3.7-2.68l.09,1.08c-.7,0-1.94,1.83-2,2-.05.17.73,1.24,1.29,1.65l26.09,19.17c.37.27.86.27,1.23,0L56.71,5.74c.56-.41,1.34-1.49,1.29-1.65-.05-.17-1.3-2-2-2l.09-1.08c1.72,0,3.17,1.05,3.7,2.68.53,1.63-.01,3.34-1.4,4.35l-26.09,19.17c-.69.51-1.5.76-2.31.76Z" style="fill: #fff; stroke-width: 0px;"/>
</svg>